<mxfile host="app.diagrams.net" modified="2022-01-26T09:27:56.340Z" agent="5.0 (Macintosh; Intel Mac OS X 10_14_6) AppleWebKit/537.36 (KHTML, like Gecko) Chrome/97.0.4692.71 Safari/537.36" etag="N5HfQLyBzD2sqJqm4AKg" version="16.4.5" type="github">
  <diagram id="pl5OQArcqMthezYP98jZ" name="Page-1">
    <mxGraphModel dx="1186" dy="588" grid="1" gridSize="10" guides="1" tooltips="1" connect="1" arrows="1" fold="1" page="1" pageScale="1" pageWidth="827" pageHeight="1169" math="0" shadow="0">
      <root>
        <mxCell id="0" />
        <mxCell id="1" parent="0" />
        <mxCell id="tBvA7OCLMfNNUmLfYHtM-1" value="array de toutes les recettes (this.all)" style="rounded=0;whiteSpace=wrap;html=1;" vertex="1" parent="1">
          <mxGeometry x="40" y="220" width="230" height="100" as="geometry" />
        </mxCell>
        <mxCell id="tBvA7OCLMfNNUmLfYHtM-2" value="string de l&#39;input (str)" style="rounded=0;whiteSpace=wrap;html=1;" vertex="1" parent="1">
          <mxGeometry x="40" y="80" width="230" height="60" as="geometry" />
        </mxCell>
        <mxCell id="tBvA7OCLMfNNUmLfYHtM-3" value="Passé en paramètre" style="endArrow=classic;html=1;rounded=0;" edge="1" parent="1">
          <mxGeometry width="50" height="50" relative="1" as="geometry">
            <mxPoint x="150" y="150" as="sourcePoint" />
            <mxPoint x="150" y="210" as="targetPoint" />
          </mxGeometry>
        </mxCell>
        <mxCell id="tBvA7OCLMfNNUmLfYHtM-4" value="Si l&#39;élément contient str dans son nom" style="rounded=0;whiteSpace=wrap;html=1;" vertex="1" parent="1">
          <mxGeometry x="470" y="100" width="250" height="80" as="geometry" />
        </mxCell>
        <mxCell id="tBvA7OCLMfNNUmLfYHtM-5" value="Si l&#39;élément contient str dans son array &quot;appliances&quot;" style="rounded=0;whiteSpace=wrap;html=1;" vertex="1" parent="1">
          <mxGeometry x="470" y="180" width="250" height="80" as="geometry" />
        </mxCell>
        <mxCell id="tBvA7OCLMfNNUmLfYHtM-6" value="Si l&#39;élément contient str dans son array &quot;ustensils&quot;" style="rounded=0;whiteSpace=wrap;html=1;" vertex="1" parent="1">
          <mxGeometry x="470" y="260" width="250" height="80" as="geometry" />
        </mxCell>
        <mxCell id="tBvA7OCLMfNNUmLfYHtM-7" value="Si l&#39;élément contient str dans son array &quot;ingredients&quot;" style="rounded=0;whiteSpace=wrap;html=1;" vertex="1" parent="1">
          <mxGeometry x="470" y="340" width="250" height="80" as="geometry" />
        </mxCell>
        <mxCell id="tBvA7OCLMfNNUmLfYHtM-8" value="" style="endArrow=classic;html=1;rounded=0;" edge="1" parent="1">
          <mxGeometry width="50" height="50" relative="1" as="geometry">
            <mxPoint x="290" y="269.5" as="sourcePoint" />
            <mxPoint x="460" y="270" as="targetPoint" />
            <Array as="points">
              <mxPoint x="350" y="270" />
            </Array>
          </mxGeometry>
        </mxCell>
        <mxCell id="tBvA7OCLMfNNUmLfYHtM-9" value="itération sur tous &lt;br&gt;les éléments de &lt;br&gt;all (boucle for)" style="edgeLabel;html=1;align=center;verticalAlign=middle;resizable=0;points=[];" vertex="1" connectable="0" parent="tBvA7OCLMfNNUmLfYHtM-8">
          <mxGeometry x="0.1857" y="1" relative="1" as="geometry">
            <mxPoint y="1" as="offset" />
          </mxGeometry>
        </mxCell>
        <mxCell id="tBvA7OCLMfNNUmLfYHtM-10" value="Structure conditionnelle" style="text;html=1;strokeColor=none;fillColor=none;align=center;verticalAlign=middle;whiteSpace=wrap;rounded=0;" vertex="1" parent="1">
          <mxGeometry x="530" y="50" width="130" height="30" as="geometry" />
        </mxCell>
        <mxCell id="tBvA7OCLMfNNUmLfYHtM-11" value="Array des recette filtrées (this.filtered)" style="rounded=0;whiteSpace=wrap;html=1;" vertex="1" parent="1">
          <mxGeometry x="470" y="535" width="250" height="100" as="geometry" />
        </mxCell>
        <mxCell id="tBvA7OCLMfNNUmLfYHtM-12" value="" style="endArrow=classic;html=1;rounded=0;" edge="1" parent="1">
          <mxGeometry width="50" height="50" relative="1" as="geometry">
            <mxPoint x="594.5" y="430" as="sourcePoint" />
            <mxPoint x="594.5" y="510" as="targetPoint" />
          </mxGeometry>
        </mxCell>
        <mxCell id="tBvA7OCLMfNNUmLfYHtM-13" value="L&#39;élément est push dans l&#39;arret filtered" style="text;html=1;align=center;verticalAlign=middle;resizable=0;points=[];autosize=1;strokeColor=none;fillColor=none;" vertex="1" parent="1">
          <mxGeometry x="480" y="450" width="220" height="20" as="geometry" />
        </mxCell>
        <mxCell id="tBvA7OCLMfNNUmLfYHtM-14" value="" style="endArrow=classic;html=1;rounded=0;" edge="1" parent="1">
          <mxGeometry width="50" height="50" relative="1" as="geometry">
            <mxPoint x="410" y="584" as="sourcePoint" />
            <mxPoint x="280" y="584" as="targetPoint" />
            <Array as="points">
              <mxPoint x="460" y="584" />
            </Array>
          </mxGeometry>
        </mxCell>
        <mxCell id="tBvA7OCLMfNNUmLfYHtM-18" value="Affichage du résultat" style="edgeLabel;html=1;align=center;verticalAlign=middle;resizable=0;points=[];" vertex="1" connectable="0" parent="tBvA7OCLMfNNUmLfYHtM-14">
          <mxGeometry x="0.2824" y="-4" relative="1" as="geometry">
            <mxPoint as="offset" />
          </mxGeometry>
        </mxCell>
        <mxCell id="tBvA7OCLMfNNUmLfYHtM-15" value="Si moins de 3 caractères dans str :&amp;nbsp;&lt;br&gt;affiche this.all" style="rounded=0;whiteSpace=wrap;html=1;" vertex="1" parent="1">
          <mxGeometry x="50" y="435" width="210" height="100" as="geometry" />
        </mxCell>
        <mxCell id="tBvA7OCLMfNNUmLfYHtM-16" value="Si aucune recette ne correspond : affiche message d&#39;erreur" style="rounded=0;whiteSpace=wrap;html=1;" vertex="1" parent="1">
          <mxGeometry x="50" y="535" width="210" height="100" as="geometry" />
        </mxCell>
        <mxCell id="tBvA7OCLMfNNUmLfYHtM-17" value="Si 3 caractères ou plus et que des recettes correspondent : affiche this.filtered" style="rounded=0;whiteSpace=wrap;html=1;" vertex="1" parent="1">
          <mxGeometry x="50" y="635" width="210" height="100" as="geometry" />
        </mxCell>
      </root>
    </mxGraphModel>
  </diagram>
</mxfile>
